<svg width="115" height="95" viewBox="0 0 115 95" fill="none" xmlns="http://www.w3.org/2000/svg">
<g clip-path="url(#clip0_11_5)">
<path d="M84.75 74.48C88.09 72.54 91.45 70.65 94.75 68.63C97.47 66.97 100.1 65.15 102.79 63.42C105.63 61.6 108.73 61.68 111.8 62.51C114.02 63.11 115.16 64.87 113.23 67.07C105.83 75.47 98.01 83.45 87.58 88.01C82.49 90.23 77.05 91.99 71.6 92.95C65.32 94.06 58.87 94 52.58 92.03C48.45 90.73 44.23 89.69 40.04 88.61C31.3 86.36 23.26 87.91 15.96 93.24C15.41 93.64 14.89 94.07 14.3 94.4C13.84 94.66 13.3 94.78 12.8 94.96C11.85 93.84 12.13 93.05 13.25 92.21C17.72 88.87 22.52 86.14 28.12 85.48C32.9 84.92 37.7 85.2 42.39 86.56C47.33 88 52.24 89.73 57.29 90.6C61.24 91.28 65.47 91.39 69.42 90.75C74.66 89.9 79.85 88.4 84.86 86.6C91.85 84.09 97.53 79.36 102.94 74.41C105.61 71.97 108.04 69.25 110.56 66.65C110.97 66.22 111.32 65.72 111.81 65.11C109.15 64.02 106.68 63.84 104.38 65.25C99.63 68.18 94.99 71.31 90.24 74.26C86.57 76.54 82.6 78.06 78.22 78.35C75.19 78.55 72.16 79.12 69.15 79.02C63.07 78.81 57.22 77.29 51.53 75.17C51.13 75.02 50.92 74.4 50.62 73.99C51.08 73.71 51.54 73.17 52 73.18C55.98 73.24 59.97 73.6 63.94 73.46C67.68 73.33 71.43 72.82 75.13 72.23C77.95 71.78 79.29 70.38 79.45 68.66C79.61 66.89 78.66 65.98 77.19 65.57C76.04 65.25 74.81 65.1 73.61 65.08C70.35 65.02 67.08 65.2 63.83 65.03C59.69 64.82 55.66 63.91 51.7 62.61C46.3 60.84 40.8 59.41 35.01 59.91C29.27 60.4 24.2 62.74 19.53 65.87C14.74 69.08 10.19 72.67 5.54 76.1C4.9 76.57 4.34 77.23 3.62 77.51C3.18 77.68 2.53 77.3 1.97 77.17C2.1 76.65 2.06 75.91 2.4 75.64C8.88 70.35 15.29 64.96 22.8 61.13C27.81 58.58 33.19 56.85 38.82 57.38C43.23 57.8 47.55 59.21 51.91 60.18C55.52 60.97 59.12 61.75 62.73 62.54C63.26 62.6 63.79 62.66 64.32 62.71C68 62.72 71.69 62.71 75.37 62.77C76.09 62.78 76.84 62.96 77.53 63.19C80.34 64.12 81.94 66.03 81.95 68.39C81.96 70.74 80.01 73.29 77.29 73.84C73.82 74.54 70.29 74.91 66.77 75.37C65.89 75.48 64.99 75.39 64.1 75.39C64.07 75.59 64.04 75.79 64.01 76C64.93 76.17 65.84 76.44 66.77 76.49C68.3 76.57 69.85 76.38 71.37 76.51C74.11 76.75 76.68 76.04 78.84 74.6C83.17 71.72 87.51 68.78 91.39 65.35C93.81 63.21 95.39 60.13 97.35 57.47C97.4 57.33 97.45 57.19 97.51 57.05C97.33 57.05 97.14 57.03 96.96 57.02C92.74 57.15 89.17 58.85 86.1 61.65C85.06 62.6 84.13 63.67 83.02 64.82C82.55 64.26 82.16 63.8 81.7 63.25C81.92 62.87 82.17 62.42 82.36 62.1C79.04 60.92 75.73 59.94 72.59 58.57C63.14 54.45 56.34 47.48 51.61 38.41C50.8 36.85 50.21 35.17 49.29 33.69C48.09 31.74 49.38 30.32 50.13 28.83C52.36 24.4 54.71 20.02 56.82 15.97C46.81 19.09 35.34 36.07 40.22 50.07C40.48 48.8 40.79 47.55 41.01 46.27C41.53 43.23 41.95 40.17 42.53 37.14C42.67 36.41 43.3 35.77 43.7 35.09C44.06 35.67 44.58 36.2 44.76 36.82C47.69 46.82 53.65 54.46 62.54 59.85C63.28 60.3 64.03 60.75 65.19 61.45C62.76 61.99 61.13 61.66 59.51 60.59C53.35 56.53 48.77 51.1 45.35 44.62C45.12 44.19 44.87 43.76 44.6 43.36C44.51 43.22 44.31 43.15 44.1 43C41.6 48.68 45.34 52.74 47.64 57.18C45.96 57.73 44.93 56.96 44.19 55.5C43.57 54.27 42.91 53.06 42.27 51.85C42.08 51.88 41.89 51.91 41.7 51.94C41.89 53.45 42.08 54.95 42.27 56.45C39.7 56.75 39.6 56.79 38.49 53.76C35.87 46.59 35.63 39.28 38.5 32.21C43.14 20.77 51.54 13.17 63.77 10.96C69.72 9.88 75.92 10.35 81.88 12.83C89.18 15.87 94.72 20.65 98.71 27.33C102.17 33.13 103.66 39.5 103.01 46.21C101.84 58.25 95.64 67.14 85.37 73.32C85 73.54 84.66 73.8 84.31 74.04C84.1 74.16 83.89 74.29 83.68 74.41C83.42 74.54 83.16 74.67 82.9 74.81C82.93 74.88 82.96 74.95 83 75.02C83.32 74.94 83.65 74.86 83.97 74.78C84.24 74.69 84.51 74.59 84.79 74.5L84.75 74.48ZM89.88 21.01C89.67 20.55 89.62 20.18 89.42 20.05C87.04 18.55 84.66 17.06 82.22 15.66C81.87 15.46 81.18 15.72 80.71 15.9C75.58 17.91 71.25 21.11 67.61 25.19C63.73 29.53 60.64 34.39 58.32 39.78C56.85 43.18 56.82 43.79 59.93 46.14C64.3 40.39 69.69 35.88 76.12 32.52C82.67 29.1 89.71 29.44 96.92 29.36C95.76 27.36 94.48 25.61 93.12 23.91C92.93 23.67 92.36 23.71 91.96 23.68C89.05 23.51 86.13 23.35 83.22 23.18C83.1733 22.0267 85.3933 21.3 89.88 21V21.01ZM65.76 52.06C75.23 41.47 85.52 34.25 100.88 41.41C100.02 38.3 99.33 35.75 98.59 33.21C98.51 32.94 98.17 32.64 97.89 32.56C93.9 31.39 89.76 31.47 85.75 31.94C79.04 32.74 73.36 36.1 68.26 40.41C65.59 42.67 63.29 45.26 61.39 48.43C62.95 49.73 64.39 50.93 65.75 52.06H65.76ZM99.97 49.45C100.13 48.94 100.3 48.5 100.4 48.04C101.08 44.89 100.53 43.83 97.62 42.4C93.63 40.43 89.25 40.42 85.24 41.26C77.9 42.79 72.27 47.35 67.77 53.54C69.26 54.37 70.6 55.25 72.05 55.87C72.55 56.08 73.44 55.86 73.94 55.52C77.03 53.44 79.88 50.91 83.18 49.25C86.02 47.82 89.29 47.14 92.64 47.99C95.02 48.6 97.46 48.96 99.98 49.45H99.97ZM55.5 40.87C60.33 29.19 67.25 19.74 79.19 14.25C76.58 13.75 74.55 13.18 72.49 13.02C71.18 12.92 69.51 13 68.52 13.72C61.32 18.96 56.21 25.94 52.38 33.91C52.23 34.21 52.05 34.67 52.17 34.9C53.19 36.83 54.29 38.72 55.5 40.87ZM99.22 52.06C91.07 47.84 80.8 50.6 75.71 57.5C76.99 57.87 78.19 58.19 79.39 58.56C80.84 59.01 82.8 58.7 82.94 61.41C87.57 57 92.76 54.65 98.79 54.21C98.94 53.43 99.08 52.74 99.21 52.05L99.22 52.06ZM65.14 13.26C63.61 13.63 61.88 13.35 60.73 15.14C59.67 16.78 58.3 18.22 57.2 19.84C56.14 21.39 55.25 23.05 54.28 24.66L54.51 24.77C58.03 20.96 61.54 17.15 65.13 13.26H65.14Z" fill="#473126"/>
<path d="M0.0199997 46.51C3.99 43.42 8.66 43.2 13.42 43.76C18.35 44.35 21.89 47.69 25.89 50.87C25.12 47.76 24.64 45.03 23.73 42.46C23.13 40.77 21.97 39.48 19.71 39.29C12.62 38.69 8.36 34.27 6.1 27.95C5.04 24.97 4.9 21.66 4.28 18.13C10.24 18.11 14.4 20.59 17.86 24.31C21.36 28.08 22.81 32.79 22.77 38.35C23.58 34.15 24.33 30.51 24.94 26.84C25.08 26.01 24.88 25.02 24.54 24.24C20.59 15.3 25.25 3.78 34.71 -0.0100002C35.42 2.19 36.52 4.33 36.73 6.56C37.02 9.58 37 12.74 36.44 15.71C35.61 20.08 32.86 23.28 29.02 25.59C28.13 26.12 27.31 27.16 26.97 28.14C25.48 32.43 24.85 37 25.65 41.39C26.54 46.29 27.82 51.24 31.05 55.35C31.38 55.76 31.32 56.48 31.45 57.05C30.77 56.88 29.95 56.9 29.44 56.51C28 55.41 26.76 54.04 25.28 53.01C24.76 52.65 23.62 52.66 23.04 52.99C14.49 57.82 5.18 53.99 0.00999966 46.84C-0.0200003 46.8 0.00999966 46.72 0.0199997 46.51ZM26.39 22.09C27.7 19.44 28.18 16.41 30.21 14.13C30.99 17.21 29.28 19.75 28.67 22.54C34.55 20.66 36.37 9.74 33.32 3.49C26.91 7.22 22.73 17.19 26.39 22.09ZM19.45 36.86C17.58 34.32 15.87 32.01 14.17 29.7L14.7 29.24C17.31 29.58 18.04 32.31 19.89 33.8C19.15 27.58 12.18 20.54 7.23 20.88C6.53 26.57 11.54 36.33 19.45 36.85V36.86ZM21.21 51.25C18.28 50.5 15.66 49.83 13.04 49.15C13.08 48.95 13.13 48.76 13.17 48.56H18.81C16.23 45.39 7.17 44.73 3.43 47.37C7.71 51.94 14.72 55.13 21.21 51.24V51.25Z" fill="#B18B72"/>
<path d="M77.7 22.42C77.97 22.66 78.58 22.97 78.56 23.22C78.51 23.74 78.26 24.42 77.86 24.7C75.97 26.05 73.97 27.25 72.06 28.57C70.8 29.44 69.68 30.53 68.37 31.3C67.85 31.61 66.98 31.35 66.28 31.35C66.5 30.8 66.55 30.04 66.96 29.74C70.09 27.38 73.27 25.11 76.46 22.83C76.74 22.63 77.13 22.6 77.71 22.41L77.7 22.42Z" fill="#473126"/>
</g>
<defs>
<clipPath id="clip0_11_5">
<rect width="114.21" height="94.96" fill="white"/>
</clipPath>
</defs>
</svg>
