<svg width="59" height="49" viewBox="0 0 59 49" fill="none" xmlns="http://www.w3.org/2000/svg">
<g clip-path="url(#clip0_28_129)">
<path d="M43.7812 38.4322C45.5066 37.4311 47.2424 36.4559 48.9471 35.4135C50.3523 34.557 51.7109 33.6178 53.1005 32.7251C54.5677 31.786 56.1691 31.8273 57.755 32.2556C58.9019 32.5652 59.4908 33.4734 58.4938 34.6086C54.671 38.943 50.6312 43.0608 45.2432 45.4137C42.6137 46.5593 39.8034 47.4675 36.988 47.9628C33.7438 48.5356 30.4118 48.5046 27.1624 47.4881C25.0289 46.8173 22.8489 46.2806 20.6844 45.7234C16.1694 44.5623 12.0159 45.3621 8.24483 48.1125C7.9607 48.3189 7.69207 48.5407 7.38728 48.711C7.14965 48.8452 6.87069 48.9071 6.61239 49C6.12163 48.4221 6.26628 48.0144 6.84486 47.581C9.15403 45.8575 11.6337 44.4488 14.5266 44.1083C16.9959 43.8193 19.4755 43.9638 21.8984 44.6655C24.4503 45.4086 26.9868 46.3013 29.5956 46.7502C31.6361 47.1011 33.8213 47.1579 35.8618 46.8276C38.5688 46.389 41.2499 45.615 43.838 44.6862C47.449 43.391 50.3833 40.9503 53.178 38.3961C54.5573 37.137 55.8126 35.7335 57.1145 34.3918C57.3263 34.17 57.5071 33.912 57.7602 33.5972C56.3861 33.0347 55.1101 32.9419 53.9219 33.6694C51.4681 35.1813 49.0711 36.7964 46.6173 38.3187C44.7214 39.4952 42.6705 40.2795 40.4079 40.4291C38.8426 40.5323 37.2773 40.8264 35.7224 40.7748C32.5815 40.6665 29.5594 39.8822 26.62 38.7882C26.4134 38.7108 26.3049 38.3909 26.1499 38.1793C26.3875 38.0349 26.6252 37.7562 26.8628 37.7614C28.9188 37.7923 30.9801 37.9781 33.0309 37.9058C34.963 37.8388 36.9002 37.5756 38.8116 37.2712C40.2684 37.039 40.9606 36.3166 41.0433 35.429C41.1259 34.5157 40.6352 34.0461 39.8758 33.8346C39.2817 33.6694 38.6463 33.592 38.0264 33.5817C36.3423 33.5508 34.653 33.6436 32.9741 33.5559C30.8354 33.4476 28.7535 32.978 26.7078 32.3072C23.9182 31.3938 21.077 30.656 18.0859 30.914C15.1207 31.1668 12.5015 32.3743 10.0891 33.9894C7.61458 35.6457 5.26409 37.4982 2.86193 39.2681C2.53132 39.5106 2.24202 39.8512 1.87008 39.9957C1.64278 40.0834 1.30699 39.8873 1.0177 39.8202C1.08486 39.5519 1.06419 39.1701 1.23983 39.0307C4.58735 36.3011 7.89871 33.5198 11.7783 31.5435C14.3664 30.2277 17.1457 29.335 20.0541 29.6085C22.3323 29.8252 24.564 30.5528 26.8163 31.0533C28.6812 31.4609 30.5409 31.8634 32.4058 32.2711C32.6796 32.302 32.9534 32.333 33.2272 32.3588C35.1283 32.3639 37.0345 32.3588 38.9356 32.3897C39.3075 32.3949 39.695 32.4878 40.0514 32.6065C41.503 33.0863 42.3296 34.0719 42.3347 35.2897C42.3399 36.5023 41.3326 37.8181 39.9274 38.1019C38.1349 38.4631 36.3113 38.6541 34.4929 38.8914C34.0383 38.9482 33.5733 38.9017 33.1136 38.9017C33.0981 39.0049 33.0826 39.1081 33.0671 39.2165C33.5424 39.3042 34.0124 39.4436 34.4929 39.4693C35.2833 39.5106 36.084 39.4126 36.8692 39.4797C38.2847 39.6035 39.6123 39.2371 40.7281 38.4941C42.965 37.008 45.207 35.4909 47.2114 33.721C48.4615 32.6168 49.2777 31.0275 50.2903 29.6549C50.3161 29.5827 50.3419 29.5104 50.3729 29.4382C50.2799 29.4382 50.1818 29.4279 50.0888 29.4227C47.9088 29.4898 46.0645 30.367 44.4786 31.8118C43.9413 32.302 43.4609 32.8541 42.8875 33.4476C42.6447 33.1586 42.4432 32.9212 42.2056 32.6374C42.3192 32.4413 42.4484 32.2091 42.5466 32.044C40.8315 31.4351 39.1215 30.9294 37.4994 30.2225C32.6176 28.0966 29.1048 24.5 26.6613 19.8198C26.2429 19.0148 25.9381 18.148 25.4628 17.3843C24.8429 16.3781 25.5093 15.6453 25.8968 14.8765C27.0488 12.5906 28.2628 10.3305 29.3528 8.24063C24.1817 9.85057 18.2564 18.6124 20.7774 25.8365C20.9117 25.1811 21.0718 24.5361 21.1855 23.8756C21.4541 22.307 21.6711 20.728 21.9707 19.1645C22.043 18.7878 22.3685 18.4576 22.5751 18.1067C22.7611 18.406 23.0297 18.6794 23.1227 18.9994C24.6363 24.1594 27.7152 28.1017 32.3077 30.883C32.69 31.1152 33.0774 31.3474 33.6767 31.7086C32.4213 31.9873 31.5793 31.817 30.7424 31.2648C27.5602 29.1699 25.1942 26.3679 23.4275 23.0242C23.3087 22.8023 23.1795 22.5805 23.04 22.3741C22.9935 22.3018 22.8902 22.2657 22.7817 22.1883C21.4902 25.1192 23.4223 27.2142 24.6105 29.5053C23.7426 29.7891 23.2105 29.3917 22.8282 28.6384C22.5079 28.0037 22.167 27.3793 21.8364 26.7549C21.7382 26.7704 21.6401 26.7859 21.5419 26.8014C21.6401 27.5806 21.7382 28.3546 21.8364 29.1286C20.5087 29.2834 20.4571 29.304 19.8836 27.7405C18.5302 24.0408 18.4062 20.2687 19.8888 16.6206C22.2858 10.7175 26.6252 6.79581 32.9431 5.65543C36.0168 5.09814 39.2197 5.34067 42.2986 6.62036C46.0697 8.18902 48.9316 10.6555 50.9928 14.1025C52.7802 17.0953 53.55 20.3823 53.2142 23.8447C52.6098 30.0574 49.4069 34.6447 44.1015 37.8336C43.9104 37.9471 43.7347 38.0813 43.5539 38.2051C43.4454 38.2671 43.3369 38.3341 43.2285 38.3961C43.0941 38.4631 42.9598 38.5302 42.8255 38.6025C42.841 38.6386 42.8565 38.6747 42.8772 38.7108C43.0425 38.6695 43.213 38.6283 43.3783 38.587C43.5177 38.5405 43.6572 38.4889 43.8019 38.4425L43.7812 38.4322ZM46.4313 10.8413C46.3228 10.6039 46.297 10.413 46.1937 10.3459C44.9642 9.57192 43.7347 8.80307 42.4742 8.08066C42.2934 7.97746 41.937 8.11162 41.6942 8.20451C39.0441 9.24168 36.8072 10.8929 34.9268 12.9982C32.9224 15.2377 31.3262 17.7455 30.1277 20.5267C29.3683 22.2812 29.3528 22.5959 30.9594 23.8085C33.2169 20.8415 36.0013 18.5143 39.323 16.7805C42.7067 15.0158 46.3435 15.1912 50.0681 15.15C49.4689 14.1179 48.8077 13.2149 48.1051 12.3377C48.0069 12.2139 47.7125 12.2345 47.5058 12.219C46.0026 12.1313 44.4941 12.0488 42.9908 11.961C42.9667 11.3659 44.1135 10.9909 46.4313 10.8361V10.8413ZM33.9711 26.8633C38.8633 21.3988 44.179 17.6732 52.1138 21.3678C51.6696 19.7631 51.3131 18.4472 50.9308 17.1366C50.8895 16.9973 50.7139 16.8425 50.5692 16.8012C48.508 16.1975 46.3693 16.2387 44.2978 16.4813C40.8315 16.8941 37.8972 18.6278 35.2626 20.8518C33.8833 22.018 32.6951 23.3545 31.7136 24.9902C32.5195 25.661 33.2634 26.2802 33.966 26.8633H33.9711ZM51.6437 25.5165C51.7264 25.2534 51.8142 25.0263 51.8659 24.789C52.2172 23.1635 51.933 22.6166 50.4298 21.8787C48.3685 20.8622 46.1059 20.857 44.0343 21.2904C40.2425 22.0799 37.3341 24.4329 35.0095 27.627C35.7792 28.0553 36.4714 28.5094 37.2205 28.8293C37.4788 28.9377 37.9385 28.8241 38.1968 28.6487C39.7931 27.5754 41.2654 26.2699 42.9702 25.4133C44.4373 24.6754 46.1265 24.3246 47.8571 24.7632C49.0866 25.0779 50.3471 25.2637 51.6489 25.5165H51.6437ZM28.6709 21.0892C31.166 15.0622 34.7408 10.186 40.909 7.35309C39.5606 7.09509 38.512 6.80097 37.4478 6.71841C36.771 6.66681 35.9083 6.70809 35.3969 7.07961C31.6774 9.78349 29.0377 13.3852 27.0591 17.4978C26.9816 17.6526 26.8886 17.89 26.9506 18.0086C27.4776 19.0045 28.0458 19.9798 28.6709 21.0892ZM51.2563 26.8633C47.0461 24.6858 41.7407 26.1099 39.1112 29.6704C39.7724 29.8613 40.3924 30.0264 41.0123 30.2174C41.7613 30.4496 42.7739 30.2896 42.8462 31.688C45.238 29.4124 47.9191 28.1998 51.0342 27.9727C51.1117 27.5702 51.184 27.2142 51.2511 26.8581L51.2563 26.8633ZM33.6508 6.84225C32.8604 7.03317 31.9667 6.88869 31.3727 7.81234C30.8251 8.65859 30.1173 9.40164 29.5491 10.2376C29.0015 11.0374 28.5417 11.894 28.0406 12.7247L28.1595 12.7815C29.9779 10.8155 31.7911 8.84951 33.6457 6.84225H33.6508Z" fill="#F0DDD0"/>
<path d="M0.0103203 23.9995C2.06119 22.405 4.47368 22.2915 6.93266 22.5805C9.47946 22.8849 11.3082 24.6084 13.3746 26.2493C12.9768 24.6445 12.7288 23.2358 12.2587 21.9097C11.9488 21.0376 11.3495 20.372 10.182 20.2739C6.51938 19.9643 4.3187 17.6836 3.1512 14.4224C2.60361 12.8847 2.53129 11.1767 2.211 9.35524C5.28989 9.34492 7.43892 10.6246 9.22633 12.5442C11.0344 14.4895 11.7835 16.9199 11.7628 19.7889C12.1812 17.6217 12.5687 15.7434 12.8838 13.8497C12.9561 13.4214 12.8528 12.9105 12.6772 12.508C10.6366 7.89494 13.0439 1.95054 17.9309 -0.00512695C18.2977 1.13009 18.8659 2.23434 18.9744 3.38504C19.1242 4.94338 19.1139 6.57396 18.8246 8.1065C18.3958 10.3614 16.9752 12.0127 14.9915 13.2046C14.5317 13.4781 14.1081 14.0148 13.9325 14.5205C13.1628 16.7341 12.8373 19.0923 13.2506 21.3576C13.7103 23.886 14.3716 26.4402 16.0402 28.561C16.2107 28.7726 16.1797 29.1441 16.2468 29.4382C15.8955 29.3505 15.4719 29.3608 15.2085 29.1596C14.4646 28.592 13.824 27.885 13.0594 27.3535C12.7908 27.1678 12.2019 27.1729 11.9023 27.3432C7.48541 29.8355 2.67594 27.8592 0.00515433 24.1698C-0.0103434 24.1491 0.00515433 24.1079 0.0103203 23.9995ZM13.6329 11.3986C14.3096 10.0312 14.5576 8.4677 15.6062 7.29121C16.0092 8.88051 15.1258 10.1912 14.8107 11.6308C17.8483 10.6607 18.7884 5.02594 17.2128 1.8009C13.9015 3.7256 11.7421 8.87019 13.6329 11.3986ZM10.0477 19.02C9.08168 17.7094 8.19831 16.5174 7.3201 15.3254L7.59389 15.0881C8.9422 15.2635 9.31931 16.6722 10.275 17.4411C9.89273 14.2315 6.29208 10.5988 3.73495 10.7743C3.37334 13.7103 5.96146 18.7466 10.0477 19.0149V19.02ZM10.9569 26.4454C9.44329 26.0584 8.08982 25.7127 6.73635 25.3618C6.75702 25.2586 6.78285 25.1605 6.80351 25.0573H9.71709C8.38428 23.4216 3.70395 23.081 1.7719 24.4433C3.98291 26.8014 7.60423 28.4475 10.9569 26.4402V26.4454Z" fill="#F0DDD0"/>
<path d="M40.1392 11.5689C40.2787 11.6927 40.5938 11.8527 40.5835 11.9817C40.5577 12.25 40.4285 12.6009 40.2219 12.7454C39.2455 13.442 38.2123 14.0612 37.2256 14.7423C36.5747 15.1912 35.9962 15.7537 35.3194 16.151C35.0508 16.311 34.6014 16.1768 34.2397 16.1768C34.3534 15.893 34.3792 15.5009 34.591 15.3461C36.208 14.1283 37.8507 12.9569 39.4987 11.7804C39.6433 11.6772 39.8448 11.6618 40.1444 11.5637L40.1392 11.5689Z" fill="#F0DDD0"/>
</g>
<defs>
<clipPath id="clip0_28_129">
<rect width="59" height="49" fill="white"/>
</clipPath>
</defs>
</svg>
